<svg xmlns="http://www.w3.org/2000/svg" version="1.1" xmlns:xlink="http://www.w3.org/1999/xlink" xmlns:svgjs="http://svgjs.dev/svgjs" width="2000" height="1843" viewBox="0 0 2000 1843"><g transform="matrix(1,0,0,1,0.1656820193512658,0.7475317086184532)"><svg viewBox="0 0 268 247" data-background-color="#1f0f53" preserveAspectRatio="xMidYMid meet" height="1843" width="2000" xmlns="http://www.w3.org/2000/svg" xmlns:xlink="http://www.w3.org/1999/xlink"><g id="tight-bounds" transform="matrix(1,0,0,1,-0.022201390593068027,-0.09997365579206985)"><svg viewBox="0 0 268.04440278118614 247.2" height="247.2" width="268.04440278118614"><g><svg viewBox="0 0 268.04440278118614 247.2" height="247.2" width="268.04440278118614"><g><svg viewBox="0 0 268.04440278118614 247.2" height="247.2" width="268.04440278118614"><g id="textblocktransform"><svg viewBox="0 0 268.04440278118614 247.2" height="247.2" width="268.04440278118614" id="textblock"><g><svg viewBox="0 0 268.04440278118614 247.2" height="247.2" width="268.04440278118614"><path d="M267.417 53.02C266.157 27.36 262.565 20.227 262.565 20.227 251.539-6.202 237.778-0.506 225.417 3.292 203.591 3.446 181.854 9.091 160.079 12.119 114.374 12.581 68.278 4.986 22.8 23.717 18.528 29.464-4.432 24.846 0.76 56.304 2.121 69.39 7.086 83.913 6.935 95.922 7.615 98.026 8.56 93.202 8.963 96.23 10.375 104.39 12.681 100.541 14.571 105.365 11.937 118.246 13.827 128.971 15.629 140.21 12.454 143.135 8.384 141.749 6.556 151.449 6.367 158.479 5.347 157.145 4.225 156.837 3.406 156.632 1.755 157.402 2.033 159.608 2.978 167.152-1.08 171.514 1.466 178.904-0.286 186.91 2.675 193.838 2.272 202.511 2.222 204.255 2.499 205.744 2.94 206.154 4.893 208.361 2.045 212.672 2.348 217.342 22.384 249.262 44.121 227.195 64.649 241.872 69.979 231.608 65.972 245.516 68.101 243.36 69.765 240.846 70.975 251.263 72.852 245.362 73.142 243.668 72.701 239.665 73.734 240.435 74.276 240.846 74.755 240.743 74.831 238.382 74.944 234.841 73.948 237.048 73.684 235.201 76.544 225.861 75.839 248.081 78.523 247.158 78.397 244.438 77.615 240.538 79.216 241.051 80.804 237.151 80.854 233.918 82.265 242.693 82.316 244.592 82.568 245.926 82.971 246.85 87.381 237.305 91.767 250.237 96.391 245.926 99.227 241.205 101.949 248.492 104.822 246.696 105.83 245.259 106.851 242.693 107.821 247.004 119.704 247.928 132.368 244.079 143.634 247.158 173.738 241.41 205.91 249.518 237.652 241.923 245.138 238.998 252.913 234.841 260.209 231.506 260.209 231.506 266.119 222.371 266.119 181.316S267.379 145.393 267.568 112.703C267.757 80.013 268.639 78.679 267.379 53.02Z" opacity="1" fill="#ff5200" data-fill-palette-color="tertiary"></path><g transform="matrix(1,0,0,1,55.76832,26.230666666666668)"><svg width="156.5077627811861" viewBox="2.15 -32.3 26.200000000000003 32.599999999999994" height="194.73866666666666" data-palette-color="#ffffff"><path d="M22.55-16.65Q25.4-15.6 26.65-14.03 27.9-12.45 27.9-9.9L27.9-9.9Q27.9-4.85 23.95-2.27 20 0.3 11.7 0.3L11.7 0.3Q7.95 0.3 2.15 0L2.15 0 3.75-9.55 6.15-32.25 18.15-32.3Q22.9-32.3 25.63-30.45 28.35-28.6 28.35-25.05L28.35-25.05Q28.35-22.25 26.88-20.08 25.4-17.9 22.55-16.65L22.55-16.65ZM16.2-18.65Q20.15-19.7 20.15-23.6L20.15-23.6Q20.15-25.4 19.05-26.1 17.95-26.8 15-26.8L15-26.8Q13.85-26.8 13.15-26.75L13.15-26.75 12-18.8 16.2-18.65ZM13.6-5.2Q16.55-5.2 18.2-6.45 19.85-7.7 19.85-9.95L19.85-9.95Q19.85-11.4 19.03-12.23 18.2-13.05 16.45-13.45L16.45-13.45 11.25-13.35 10.8-10.3 10.35-5.4Q12.85-5.2 13.6-5.2L13.6-5.2Z" opacity="1" transform="matrix(1,0,0,1,0,0)" fill="#ffffff" class="wordmark-text-0" data-fill-palette-color="quaternary" id="text-0"></path></svg></g></svg></g></svg></g></svg></g><g></g></svg></g><defs></defs></svg><rect width="268.04440278118614" height="247.2" fill="none" stroke="none" visibility="hidden"></rect></g></svg></g></svg>